<?xml version="1.0" encoding="UTF-8" standalone="no"?>
<!-- Created with Inkscape (http://www.inkscape.org/) -->

<svg
   width="194.97876mm"
   height="167.30467mm"
   viewBox="0 0 194.97876 167.30468"
   version="1.1"
   id="svg3845"
   inkscape:version="0.92.3 (2405546, 2018-03-11)"
   sodipodi:docname="Latvia_road_sign_123.svg"
   inkscape:export-filename="123.svg"
   inkscape:export-xdpi="96"
   inkscape:export-ydpi="96"
   xml:space="preserve"
   xmlns:inkscape="http://www.inkscape.org/namespaces/inkscape"
   xmlns:sodipodi="http://sodipodi.sourceforge.net/DTD/sodipodi-0.dtd"
   xmlns="http://www.w3.org/2000/svg"
   xmlns:svg="http://www.w3.org/2000/svg"
   xmlns:rdf="http://www.w3.org/1999/02/22-rdf-syntax-ns#"
   xmlns:cc="http://creativecommons.org/ns#"
   xmlns:dc="http://purl.org/dc/elements/1.1/"><defs
     id="defs3839" /><sodipodi:namedview
     id="base"
     pagecolor="#2a2a2a"
     bordercolor="#666666"
     borderopacity="1.0"
     inkscape:pageopacity="0.0"
     inkscape:pageshadow="2"
     inkscape:zoom="0.35"
     inkscape:cx="-456.81004"
     inkscape:cy="-349.721"
     inkscape:document-units="mm"
     inkscape:current-layer="layer1"
     showgrid="false"
     inkscape:window-width="1920"
     inkscape:window-height="1027"
     inkscape:window-x="-8"
     inkscape:window-y="-8"
     inkscape:window-maximized="1"
     inkscape:showpageshadow="2"
     inkscape:pagecheckerboard="true"
     inkscape:deskcolor="#2a2a2a"><inkscape:page
       x="0"
       y="1.9905039e-37"
       width="194.97876"
       height="167.30467"
       id="page2"
       margin="0"
       bleed="0" /></sodipodi:namedview><metadata
     id="metadata3842"><rdf:RDF><cc:Work
         rdf:about=""><dc:format>image/svg+xml</dc:format><dc:type
           rdf:resource="http://purl.org/dc/dcmitype/StillImage" /></cc:Work></rdf:RDF></metadata><g
     inkscape:label="Layer 1"
     inkscape:groupmode="layer"
     id="layer1"
     transform="translate(31.536531,621.01588)"><path
       d="m 74.43824,-615.80387 86.84945,146.64648 c 4.15608,6.13606 -0.72706,14.54035 -6.71763,14.58637 l -175.8847,0.26448 c 3.98648,-0.0412 -13.43286,0.70281 -8.85746,-13.4183 l 86.86147,-147.3541 c 3.76109,-6.9503 13.92966,-7.04235 17.74887,-0.72459 z"
       style="fill:#ffffff;fill-opacity:1;stroke:#cccccc;stroke-width:1.19062;stroke-linecap:butt;stroke-linejoin:miter;stroke-miterlimit:22.926;stroke-dasharray:none;stroke-opacity:1"
       id="path3753"
       inkscape:connector-curvature="0" /><path
       d="m 70.71108,-612.3021 85.35899,144.02929 c 0.54062,0.68351 0.93301,1.89507 0.93301,3.07524 0,3.08981 -2.52027,5.61014 -5.61014,5.61014 -0.0618,0 -0.15525,0 -0.22051,0 H -19.37354 c 0.0275,0 -0.0618,0 -0.12846,0 -3.08988,0 -5.60773,-2.52033 -5.60773,-5.61014 0,-1.18017 0.39018,-2.39187 0.933,-3.07524 l 85.1288,-143.73603 c 2.03562,-4.00104 7.43253,-4.24333 9.75894,-0.29333 z m 57.16286,133.89465 H 4.01947 l 61.92964,-106.69453 61.92483,106.69453"
       style="fill:#fa1a3a;fill-opacity:1;fill-rule:evenodd;stroke:none;stroke-width:2.42339"
       id="path3749"
       inkscape:connector-curvature="0" /><path
       d="m 60.99325,-487.47938 1.190798,-2.13665 c 0.726809,-2.98356 -0.764984,-6.04737 -1.616695,-8.80306 l -0.180713,-0.88831 4.936759,-0.30541 0.285517,8.57518 c -0.106982,1.20172 -0.285517,2.40337 -0.459001,3.55848 z m 18.344716,0 c 3.220668,-2.98092 4.329927,-5.52165 5.436597,-9.82087 2.855991,0.71506 3.641431,0.35753 6.08432,-0.34211 -2.330708,3.51449 -4.546638,6.7545 -7.012518,10.16277 z m 11.520917,0 c 2.567885,-3.09493 3.490939,-6.32193 1.744207,-10.44247 l -0.831255,-1.61351 c -3.205422,1.83889 -8.583325,2.12895 -10.516263,-2.20654 l -21.460864,1.12398 -4.253387,13.13854 h -4.510998 c 3.46802,-3.52998 3.386419,-7.62203 3.52158,-12.16991 l -2.037458,-0.48673 -0.65272,-0.48161 c -1.922667,-1.14732 -4.531391,-6.48771 -5.900723,-8.67876 l -2.38168,-5.62267 -7.874435,2.53295 c -0.328891,0 -0.657771,0 -0.979223,0 -0.923063,-0.39644 -1.693172,-1.32345 -1.940524,-2.07711 0.104804,-0.54621 0.247205,-1.11627 0.433705,-1.65756 1.611634,-2.92917 3.192616,-5.87389 4.755751,-8.83153 0.196613,-0.63944 -0.696093,-1.16546 -1.11432,-2.01751 0.599224,-0.25108 2.141977,0.20703 2.718294,0.28999 -0.08165,-0.73811 -1.206119,-1.69639 -1.647274,-2.46563 2.38934,0.52564 3.205348,0.6321 4.972462,2.419 0.644776,0.21217 1.341301,0.47133 1.978837,0.67836 9.009148,2.26615 29.847797,2.40336 45.226856,1.18616 2.203208,0 4.291699,-0.67836 6.390377,0.47939 1.183137,0.81329 1.810487,1.59023 2.50152,2.6314 1.048042,2.96022 1.983902,6.02667 1.983902,9.25888 -0.11205,2.28165 -0.71127,4.74728 -0.27758,7.02378 1.91762,3.24771 0.83387,4.83016 -0.38021,8.17631 -0.11204,-1.90877 -1.468797,-2.30499 -1.716086,-4.09204 -0.711267,-1.92427 1.070957,-7.68422 0.997016,-10.46839 -0.08387,-2.8385 -0.810884,-5.62267 -2.292481,-8.03381 -1.33363,1.33893 -1.356548,16.45621 -1.086278,18.84409 0.25516,1.47622 0.897621,2.59505 1.716164,3.63622 l -2.307727,9.92703 z m 25.211887,11.077 0.44888,0.16812 z m -0.88989,0 0.48719,0.16812 -0.48719,-0.16812"
       style="fill:#000000;fill-opacity:1;fill-rule:evenodd;stroke:none;stroke-width:2.56988"
       id="path3751"
       inkscape:connector-curvature="0" /></g></svg>
