<?xml version="1.0" encoding="UTF-8" standalone="no"?>
<!-- Created with Inkscape (http://www.inkscape.org/) -->

<svg
   width="194.63937mm"
   height="382.59967mm"
   viewBox="0 0 194.63937 382.5997"
   version="1.1"
   id="svg3845"
   inkscape:version="0.92.3 (2405546, 2018-03-11)"
   sodipodi:docname="Latvia_road_sign_123.svg"
   inkscape:export-filename="137.svg"
   inkscape:export-xdpi="96"
   inkscape:export-ydpi="96"
   xml:space="preserve"
   xmlns:inkscape="http://www.inkscape.org/namespaces/inkscape"
   xmlns:sodipodi="http://sodipodi.sourceforge.net/DTD/sodipodi-0.dtd"
   xmlns="http://www.w3.org/2000/svg"
   xmlns:svg="http://www.w3.org/2000/svg"
   xmlns:rdf="http://www.w3.org/1999/02/22-rdf-syntax-ns#"
   xmlns:cc="http://creativecommons.org/ns#"
   xmlns:dc="http://purl.org/dc/elements/1.1/"><defs
     id="defs3839" /><sodipodi:namedview
     id="base"
     pagecolor="#2a2a2a"
     bordercolor="#666666"
     borderopacity="1.0"
     inkscape:pageopacity="0.0"
     inkscape:pageshadow="2"
     inkscape:zoom="0.35"
     inkscape:cx="-456.81004"
     inkscape:cy="-349.721"
     inkscape:document-units="mm"
     inkscape:current-layer="layer1"
     showgrid="false"
     inkscape:window-width="1920"
     inkscape:window-height="1027"
     inkscape:window-x="-8"
     inkscape:window-y="-8"
     inkscape:window-maximized="1"
     inkscape:showpageshadow="2"
     inkscape:pagecheckerboard="true"
     inkscape:deskcolor="#2a2a2a"><inkscape:page
       x="-2.4842043e-21"
       y="0"
       width="194.63937"
       height="382.5997"
       id="page2"
       margin="0"
       bleed="0" /></sodipodi:namedview><metadata
     id="metadata3842"><rdf:RDF><cc:Work
         rdf:about=""><dc:format>image/svg+xml</dc:format><dc:type
           rdf:resource="http://purl.org/dc/dcmitype/StillImage" /></cc:Work></rdf:RDF></metadata><g
     inkscape:label="Layer 1"
     inkscape:groupmode="layer"
     id="layer1"
     transform="translate(54.688134,702.4494)"><path
       inkscape:connector-curvature="0"
       style="fill:#ffffff;fill-opacity:1;stroke:#cccccc;stroke-width:2.64583;stroke-linecap:butt;stroke-linejoin:miter;stroke-miterlimit:22.926;stroke-dasharray:none;stroke-opacity:1"
       d="M -35.514744,-701.10576 H 119.87831 c 8.78438,-0.5403 19.04835,9.98206 18.74309,18.67253 v 342.49416 c 0,8.80773 -8.45559,18.76644 -17.87401,18.76644 H -35.068358 c -8.784375,0 -18.296876,-9.81776 -18.296876,-18.22614 v -343.03446 c 0,-7.39852 10.193584,-18.67253 17.85049,-18.67253 z m 0,0"
       id="path4313" /><path
       inkscape:connector-curvature="0"
       style="fill:#fa1a3a;fill-opacity:1;fill-rule:evenodd;stroke:none;stroke-width:6.01279"
       d="m -37.440731,-400.95945 v -43.05245 l 159.479901,-91.81248 0.0511,42.93502 -159.52691,91.92991"
       id="path4315" /><path
       inkscape:connector-curvature="0"
       style="fill:#fa1a3a;fill-opacity:1;fill-rule:evenodd;stroke:none;stroke-width:6.01279"
       d="m -37.464252,-482.86008 v -42.95854 l 159.479902,-91.88305 0.017,42.88815 -159.503418,91.95344"
       id="path4317" /><path
       inkscape:connector-curvature="0"
       style="fill:#000000;fill-opacity:1;fill-rule:evenodd;stroke:none;stroke-width:6.01279"
       d="M -33.541715,-694.31777 H 118.77454 c 7.1166,0 12.94143,5.82484 12.94143,12.94161 v 340.49779 c 0,7.11661 -5.82483,12.91809 -12.94143,12.91809 H -33.541715 c -7.116777,0 -12.918089,-5.80148 -12.918089,-12.91809 v -340.49779 c 0,-7.11677 5.801312,-12.94161 12.918089,-12.94161 z m -0.376675,8.19704 h 153.09125 c 2.32533,0 4.22779,1.99655 4.22779,4.43914 v 341.39039 c 0,2.44276 -1.90246,4.41562 -4.22779,4.41562 H -33.91839 c -2.348852,0 -4.227797,-1.97286 -4.227797,-4.41562 v -341.39039 c 0,-2.44259 1.878945,-4.43914 4.227797,-4.43914"
       id="path4319" /></g></svg>
