<?xml version="1.0" encoding="UTF-8" standalone="no"?>
<!-- Created with Inkscape (http://www.inkscape.org/) -->

<svg
   width="195.29912mm"
   height="195.29608mm"
   viewBox="0 0 195.29912 195.29608"
   version="1.1"
   id="svg3845"
   inkscape:version="1.4.4 (dcaf3e7, 2026-05-05)"
   sodipodi:docname="Latvia_road_sign_301 (1).svg"
   inkscape:export-filename="310.svg"
   inkscape:export-xdpi="96"
   inkscape:export-ydpi="96"
   xml:space="preserve"
   xmlns:inkscape="http://www.inkscape.org/namespaces/inkscape"
   xmlns:sodipodi="http://sodipodi.sourceforge.net/DTD/sodipodi-0.dtd"
   xmlns="http://www.w3.org/2000/svg"
   xmlns:svg="http://www.w3.org/2000/svg"
   xmlns:rdf="http://www.w3.org/1999/02/22-rdf-syntax-ns#"
   xmlns:cc="http://creativecommons.org/ns#"
   xmlns:dc="http://purl.org/dc/elements/1.1/"><defs
     id="defs3839" /><sodipodi:namedview
     id="base"
     pagecolor="#2a2a2a"
     bordercolor="#666666"
     borderopacity="1.0"
     inkscape:pageopacity="0.0"
     inkscape:pageshadow="2"
     inkscape:zoom="0.24748738"
     inkscape:cx="-268.2136"
     inkscape:cy="-404.61526"
     inkscape:document-units="mm"
     inkscape:current-layer="layer1"
     showgrid="false"
     inkscape:window-width="1920"
     inkscape:window-height="1027"
     inkscape:window-x="-8"
     inkscape:window-y="-8"
     inkscape:window-maximized="1"
     inkscape:showpageshadow="0"
     inkscape:pagecheckerboard="1"
     inkscape:deskcolor="#2a2a2a"><inkscape:page
       x="-3.1101623e-39"
       y="0"
       width="195.29912"
       height="195.29608"
       id="page2"
       margin="0"
       bleed="0" /></sodipodi:namedview><metadata
     id="metadata3842"><rdf:RDF><cc:Work
         rdf:about=""><dc:format>image/svg+xml</dc:format><dc:type
           rdf:resource="http://purl.org/dc/dcmitype/StillImage" /></cc:Work></rdf:RDF></metadata><g
     inkscape:label="Layer 1"
     inkscape:groupmode="layer"
     id="layer1"
     transform="translate(-503.78075,288.18184)"><path
       d="m 601.43647,-287.25579 c 53.2646,0 96.71734,43.4435 96.71734,96.72041 0,53.27085 -43.45274,96.723593 -96.71734,96.723593 -53.27692,0 -96.72967,-43.452743 -96.72967,-96.723593 0,-53.27691 43.45275,-96.72041 96.72967,-96.72041 z"
       style="fill:#ffffff;fill-opacity:1;stroke:#cccccc;stroke-width:1.85208;stroke-linecap:butt;stroke-linejoin:miter;stroke-miterlimit:22.926;stroke-dasharray:none;stroke-opacity:1"
       id="path6324"
       inkscape:connector-curvature="0" /><path
       d="m 601.43647,-282.09053 c 50.41638,0 91.549,41.12636 91.549,91.55515 0,50.42572 -41.13262,91.558333 -91.549,91.558333 -50.42871,0 -91.56133,-41.132613 -91.56133,-91.558333 0,-50.42879 41.13262,-91.55515 91.56133,-91.55515 z m -0.044,24.28571 c 37.11351,0 67.37202,30.2585 67.37202,67.37202 0,37.11025 -30.25851,67.375 -67.37202,67.375 -37.10717,0 -67.37501,-30.26475 -67.37501,-67.375 0,-37.11351 30.26784,-67.37202 67.37501,-67.37202"
       style="fill:#fa1a3a;fill-opacity:1;fill-rule:evenodd;stroke:none;stroke-width:3.10599"
       id="path6306"
       inkscape:connector-curvature="0" /><path
       d="m 593.67154,-200.26332 v -0.20514 0.20514"
       style="fill:#000000;fill-opacity:1;fill-rule:evenodd;stroke:none;stroke-width:3.10599"
       id="path6308"
       inkscape:connector-curvature="0" /><path
       d="m 595.86128,-148.1697 v -10.96409 h 5.06277 l 0.006,5.39823 -5.06894,5.56586"
       style="fill:#000000;fill-opacity:1;fill-rule:evenodd;stroke:none;stroke-width:3.10599"
       id="path6310"
       inkscape:connector-curvature="0" /><path
       d="m 591.08429,-180.68002 h -0.20514 0.20514"
       style="fill:#000000;fill-opacity:1;fill-rule:evenodd;stroke:none;stroke-width:3.10599"
       id="path6312"
       inkscape:connector-curvature="0" /><path
       d="m 626.42107,-250.43424 -24.34162,16.89339 -24.18939,-16.8344 c 8.15012,-3.71474 15.36222,-4.50678 24.18939,-4.56894 7.26801,-0.0528 15.96479,1.25172 24.34162,4.50995"
       style="fill:#000000;fill-opacity:1;fill-rule:evenodd;stroke:none;stroke-width:3.10599"
       id="path6314"
       inkscape:connector-curvature="0" /><path
       d="m 626.29059,-130.55877 c -8.83342,3.09359 -15.51436,5.04411 -24.26396,4.60618 -8.51348,0.43758 -16.66985,-1.87603 -24.24531,-4.60618 l 24.2733,-17.06427 24.23597,17.06427"
       style="fill:#000000;fill-opacity:1;fill-rule:evenodd;stroke:none;stroke-width:3.10599"
       id="path6316"
       inkscape:connector-curvature="0" /><path
       d="m 559.10505,-175.54892 h 11.12873 v 6.271 c 0,3.05626 2.4941,5.56586 5.56594,5.56586 3.07493,0 5.56586,-2.5096 5.56586,-5.56586 v -13.92103 c 0,-3.07493 -2.49093,-5.56595 -5.56586,-5.56595 h -3.4632 v -9.7342 h 3.4632 c 3.07493,0 5.56586,-2.49102 5.56586,-5.56595 v -11.1318 c 0,-3.07493 -2.49093,-5.56287 -5.56586,-5.56287 -3.07184,0 -5.56594,2.48794 -5.56594,5.56287 v 6.25541 h -11.12873 v -6.25541 c 0,-9.2217 7.49164,-16.69468 16.69467,-16.69468 9.22161,0 16.69776,7.47298 16.69776,16.69468 v 10.44233 c 0,4.68067 -2.61525,8.97632 -6.78659,11.13181 4.17134,2.13691 6.78659,6.42939 6.78659,11.12881 v 13.21598 c 0,9.20612 -7.47615,16.67909 -16.69776,16.67909 -9.20303,0 -16.69467,-7.47297 -16.69467,-16.67909 v -6.271"
       style="fill:#000000;fill-opacity:1;fill-rule:evenodd;stroke:none;stroke-width:3.10599"
       id="path6318"
       inkscape:connector-curvature="0" /><path
       d="m 605.35934,-166.82423 h 7.67495 v 2.40095 c 0,2.12133 1.72073,3.83897 3.83897,3.83897 2.12142,0 3.83897,-1.71764 3.83897,-3.83897 v -12.9551 c 0,-2.12141 -1.71755,-3.83897 -3.83897,-3.83897 -1.75489,0 -3.28922,1.19581 -3.71474,2.90095 l -6.83941,-0.0264 v -28.78316 h 22.07115 v 7.19034 h -15.35597 v 14.46452 c 3.68058,-3.44761 9.44524,-3.26747 12.89603,0.41293 1.58408,1.68348 2.45994,3.91354 2.45994,6.23992 v 14.39322 c 0,6.34856 -5.15285,11.517 -11.517,11.517 -6.34865,0 -11.51392,-5.16844 -11.51392,-11.517 v -2.40095"
       style="fill:#000000;fill-opacity:1;fill-rule:evenodd;stroke:none;stroke-width:3.10599"
       id="path6320"
       inkscape:connector-curvature="0" /><path
       d="m 634.37239,-152.87212 v -15.74424 h 3.14633 v 1.57475 c 0.86987,-1.62758 2.90104,-2.24882 4.52853,-1.37912 0.5221,0.27997 0.95976,0.68939 1.27038,1.1958 1.18956,-1.68963 3.52219,-2.09649 5.21184,-0.90693 0.99392,0.7017 1.58408,1.84187 1.58408,3.05944 v 12.2003 h -3.14642 V -164.091 c 0,-0.86988 -0.70523,-1.57466 -1.57466,-1.57466 -0.86987,0 -1.57475,0.70523 -1.57475,1.57466 v 11.21888 h -3.1495 V -164.091 c 0,-0.86988 -0.70523,-1.57466 -1.57475,-1.57466 -0.86987,0 -1.57475,0.70523 -1.57475,1.57466 v 11.21888 h -3.14633"
       style="fill:#000000;fill-opacity:1;fill-rule:evenodd;stroke:none;stroke-width:3.10599"
       id="path6322"
       inkscape:connector-curvature="0" /></g></svg>
