<?xml version="1.0" encoding="UTF-8" standalone="no"?>
<!-- Created with Inkscape (http://www.inkscape.org/) -->

<svg
   width="195.29909mm"
   height="195.3022mm"
   viewBox="0 0 195.29909 195.3022"
   version="1.1"
   id="svg3845"
   inkscape:version="1.4.4 (dcaf3e7, 2026-05-05)"
   sodipodi:docname="Latvia_road_sign_301 (1).svg"
   xml:space="preserve"
   xmlns:inkscape="http://www.inkscape.org/namespaces/inkscape"
   xmlns:sodipodi="http://sodipodi.sourceforge.net/DTD/sodipodi-0.dtd"
   xmlns="http://www.w3.org/2000/svg"
   xmlns:svg="http://www.w3.org/2000/svg"
   xmlns:rdf="http://www.w3.org/1999/02/22-rdf-syntax-ns#"
   xmlns:cc="http://creativecommons.org/ns#"
   xmlns:dc="http://purl.org/dc/elements/1.1/"><defs
     id="defs3839" /><sodipodi:namedview
     id="base"
     pagecolor="#2a2a2a"
     bordercolor="#666666"
     borderopacity="1.0"
     inkscape:pageopacity="0.0"
     inkscape:pageshadow="2"
     inkscape:zoom="0.24748738"
     inkscape:cx="-268.2136"
     inkscape:cy="-404.61526"
     inkscape:document-units="mm"
     inkscape:current-layer="layer1"
     showgrid="false"
     inkscape:window-width="1920"
     inkscape:window-height="1027"
     inkscape:window-x="-8"
     inkscape:window-y="-8"
     inkscape:window-maximized="1"
     inkscape:showpageshadow="0"
     inkscape:pagecheckerboard="1"
     inkscape:deskcolor="#2a2a2a"><inkscape:page
       x="0"
       y="0"
       width="195.29909"
       height="195.3022"
       id="page2"
       margin="0"
       bleed="0" /></sodipodi:namedview><metadata
     id="metadata3842"><rdf:RDF><cc:Work
         rdf:about=""><dc:format>image/svg+xml</dc:format><dc:type
           rdf:resource="http://purl.org/dc/dcmitype/StillImage" /></cc:Work></rdf:RDF></metadata><g
     inkscape:label="Layer 1"
     inkscape:groupmode="layer"
     id="layer1"
     transform="translate(-488.40415,194.41093)"><path
       d="m 586.06143,-193.48488 c 53.2623,0 96.71573,43.44723 96.71573,96.72501 0,53.26852 -43.45343,96.72512 -96.71573,96.72512 -53.27782,0 -96.73125,-43.4566 -96.73125,-96.72512 0,-53.27778 43.45343,-96.72501 96.73125,-96.72501 z"
       style="fill:#ffffff;fill-opacity:1;stroke:#cccccc;stroke-width:1.85208;stroke-linecap:butt;stroke-linejoin:miter;stroke-miterlimit:22.926;stroke-dasharray:none;stroke-opacity:1"
       id="path10256"
       inkscape:connector-curvature="0" /><path
       d="m 650.99931,-161.49272 c 35.65107,35.65112 35.64797,93.81159 -0.006,129.4658 -35.65107,35.65106 -93.81158,35.65722 -129.46265,0.003 -35.6541,-35.65097 -35.66031,-93.82086 -0.006,-129.47501 35.65418,-35.65107 93.8209,-35.64797 129.47507,0.006 z m -117.83986,22.36967 95.07573,95.10678 c -26.72122,21.98768 -64.65212,19.99354 -89.71472,-5.06594 -25.35145,-25.35144 -27.64681,-64.28252 -5.36101,-90.04084 z m 10.49839,-10.70028 c 26.38267,-22.38521 65.13356,-19.53697 90.13714,5.46661 25.00669,25.00976 27.00076,62.93141 4.98209,89.6899 l -95.11923,-95.15651"
       style="fill:#fa1a3a;fill-opacity:1;fill-rule:evenodd;stroke:none;stroke-width:3.10603"
       id="path10250"
       inkscape:connector-curvature="0" /><path
       d="m 602.84645,-97.47109 4.52239,-14.14489 -18.67348,-0.25445 c -1.01258,-0.0176 -2.45688,0.15232 -3.2924,0.48777 l -17.30372,-17.38141 c 2.55005,-1.20509 6.35495,-1.68343 9.5231,-1.56546 l 29.5912,-0.0528 -4.24284,-14.74743 40.5617,24.1494 -40.68595,23.51271"
       style="fill:#000000;fill-opacity:1;fill-rule:evenodd;stroke:none;stroke-width:3.10603"
       id="path10252"
       inkscape:connector-curvature="0" /><path
       d="m 553.49466,-42.53157 0.0564,-63.39731 c 0.006,-2.34817 0.19256,-5.91382 1.1834,-8.06326 l 17.66713,17.75104 c -0.0343,0.31343 -0.0687,0.88212 -0.0687,1.18342 l -0.006,52.52611 H 553.495"
       style="fill:#000000;fill-opacity:1;fill-rule:evenodd;stroke:none;stroke-width:3.10603"
       id="path10254"
       inkscape:connector-curvature="0" /></g></svg>
